<mxfile host="app.diagrams.net" modified="2024-02-01T14:00:24.308Z" agent="Mozilla/5.0 (Windows NT 10.0; Win64; x64) AppleWebKit/537.36 (KHTML, like Gecko) Chrome/121.0.0.0 Safari/537.36" etag="0kPVHa3jr4YtvLMpGM5A" version="23.0.2" type="device" pages="2">
  <diagram name="Page-1" id="dKEN2C5pJkzwCb1ewEO-">
    <mxGraphModel dx="2284" dy="1838" grid="1" gridSize="10" guides="1" tooltips="1" connect="1" arrows="1" fold="1" page="1" pageScale="1" pageWidth="850" pageHeight="1100" math="0" shadow="0">
      <root>
        <mxCell id="0" />
        <mxCell id="1" parent="0" />
        <mxCell id="4Vjg-3eNtCdQvTgs3Ps0-10" value="" style="edgeStyle=orthogonalEdgeStyle;rounded=0;orthogonalLoop=1;jettySize=auto;html=1;" edge="1" parent="1" source="4Vjg-3eNtCdQvTgs3Ps0-1" target="4Vjg-3eNtCdQvTgs3Ps0-9">
          <mxGeometry relative="1" as="geometry" />
        </mxCell>
        <mxCell id="4Vjg-3eNtCdQvTgs3Ps0-1" value="Controller" style="whiteSpace=wrap;html=1;aspect=fixed;" vertex="1" parent="1">
          <mxGeometry x="-50" y="130" width="100" height="100" as="geometry" />
        </mxCell>
        <mxCell id="4Vjg-3eNtCdQvTgs3Ps0-2" value="MongoDb" style="shape=cylinder3;whiteSpace=wrap;html=1;boundedLbl=1;backgroundOutline=1;size=15;" vertex="1" parent="1">
          <mxGeometry x="750" y="230" width="60" height="80" as="geometry" />
        </mxCell>
        <mxCell id="4Vjg-3eNtCdQvTgs3Ps0-3" style="edgeStyle=orthogonalEdgeStyle;rounded=0;orthogonalLoop=1;jettySize=auto;html=1;entryX=0.5;entryY=0;entryDx=0;entryDy=0;entryPerimeter=0;" edge="1" parent="1" source="V4UuypmB-NIpJJusFrBb-3" target="4Vjg-3eNtCdQvTgs3Ps0-2">
          <mxGeometry relative="1" as="geometry" />
        </mxCell>
        <mxCell id="4Vjg-3eNtCdQvTgs3Ps0-5" value="Redis" style="shape=cylinder3;whiteSpace=wrap;html=1;boundedLbl=1;backgroundOutline=1;size=15;" vertex="1" parent="1">
          <mxGeometry x="680" y="430" width="60" height="80" as="geometry" />
        </mxCell>
        <mxCell id="4Vjg-3eNtCdQvTgs3Ps0-7" style="edgeStyle=orthogonalEdgeStyle;rounded=0;orthogonalLoop=1;jettySize=auto;html=1;exitX=0.5;exitY=0.5;exitDx=0;exitDy=0;exitPerimeter=0;" edge="1" parent="1" source="V4UuypmB-NIpJJusFrBb-1" target="4Vjg-3eNtCdQvTgs3Ps0-1">
          <mxGeometry relative="1" as="geometry" />
        </mxCell>
        <mxCell id="4Vjg-3eNtCdQvTgs3Ps0-6" value="Actor" style="shape=umlActor;verticalLabelPosition=bottom;verticalAlign=top;html=1;outlineConnect=0;" vertex="1" parent="1">
          <mxGeometry x="-250" y="150" width="30" height="60" as="geometry" />
        </mxCell>
        <mxCell id="4Vjg-3eNtCdQvTgs3Ps0-15" style="edgeStyle=orthogonalEdgeStyle;rounded=0;orthogonalLoop=1;jettySize=auto;html=1;exitX=0;exitY=0.5;exitDx=0;exitDy=0;entryX=1;entryY=0.5;entryDx=0;entryDy=0;" edge="1" parent="1" source="4Vjg-3eNtCdQvTgs3Ps0-8" target="4Vjg-3eNtCdQvTgs3Ps0-9">
          <mxGeometry relative="1" as="geometry" />
        </mxCell>
        <mxCell id="4Vjg-3eNtCdQvTgs3Ps0-8" value="MongoDbRepository" style="whiteSpace=wrap;html=1;aspect=fixed;" vertex="1" parent="1">
          <mxGeometry x="390" y="115" width="130" height="130" as="geometry" />
        </mxCell>
        <mxCell id="4Vjg-3eNtCdQvTgs3Ps0-9" value="IRepository" style="shape=process;whiteSpace=wrap;html=1;backgroundOutline=1;" vertex="1" parent="1">
          <mxGeometry x="200" y="150" width="120" height="60" as="geometry" />
        </mxCell>
        <mxCell id="4Vjg-3eNtCdQvTgs3Ps0-12" value="&lt;h1&gt;Weather Repository&lt;/h1&gt;&lt;p&gt;- CreateWeather&lt;/p&gt;&lt;p&gt;- DeleteWeather&lt;/p&gt;&lt;p&gt;- UpdateWeather&lt;/p&gt;&lt;p&gt;- GetWeather&lt;/p&gt;" style="text;html=1;strokeColor=none;fillColor=none;spacing=5;spacingTop=-20;whiteSpace=wrap;overflow=hidden;rounded=0;" vertex="1" parent="1">
          <mxGeometry x="200" width="240" height="170" as="geometry" />
        </mxCell>
        <mxCell id="4Vjg-3eNtCdQvTgs3Ps0-14" style="edgeStyle=orthogonalEdgeStyle;rounded=0;orthogonalLoop=1;jettySize=auto;html=1;exitX=0;exitY=0.5;exitDx=0;exitDy=0;entryX=0.5;entryY=1;entryDx=0;entryDy=0;" edge="1" parent="1" source="4Vjg-3eNtCdQvTgs3Ps0-13" target="4Vjg-3eNtCdQvTgs3Ps0-9">
          <mxGeometry relative="1" as="geometry" />
        </mxCell>
        <mxCell id="4Vjg-3eNtCdQvTgs3Ps0-13" value="RedisRepository" style="whiteSpace=wrap;html=1;aspect=fixed;" vertex="1" parent="1">
          <mxGeometry x="390" y="300" width="130" height="130" as="geometry" />
        </mxCell>
        <mxCell id="4Vjg-3eNtCdQvTgs3Ps0-16" style="edgeStyle=orthogonalEdgeStyle;rounded=0;orthogonalLoop=1;jettySize=auto;html=1;exitX=1;exitY=0.5;exitDx=0;exitDy=0;entryX=0.5;entryY=0;entryDx=0;entryDy=0;entryPerimeter=0;" edge="1" parent="1" source="4Vjg-3eNtCdQvTgs3Ps0-13" target="4Vjg-3eNtCdQvTgs3Ps0-5">
          <mxGeometry relative="1" as="geometry" />
        </mxCell>
        <mxCell id="4Vjg-3eNtCdQvTgs3Ps0-20" style="edgeStyle=orthogonalEdgeStyle;rounded=0;orthogonalLoop=1;jettySize=auto;html=1;exitX=0;exitY=0.5;exitDx=0;exitDy=0;entryX=0.25;entryY=1;entryDx=0;entryDy=0;" edge="1" parent="1" source="4Vjg-3eNtCdQvTgs3Ps0-17" target="4Vjg-3eNtCdQvTgs3Ps0-9">
          <mxGeometry relative="1" as="geometry" />
        </mxCell>
        <mxCell id="4Vjg-3eNtCdQvTgs3Ps0-17" value="MockRepository" style="whiteSpace=wrap;html=1;aspect=fixed;" vertex="1" parent="1">
          <mxGeometry x="390" y="480" width="130" height="130" as="geometry" />
        </mxCell>
        <mxCell id="4Vjg-3eNtCdQvTgs3Ps0-18" value="InMemoryDb" style="shape=cylinder3;whiteSpace=wrap;html=1;boundedLbl=1;backgroundOutline=1;size=15;" vertex="1" parent="1">
          <mxGeometry x="670" y="610" width="80" height="130" as="geometry" />
        </mxCell>
        <mxCell id="4Vjg-3eNtCdQvTgs3Ps0-19" style="edgeStyle=orthogonalEdgeStyle;rounded=0;orthogonalLoop=1;jettySize=auto;html=1;exitX=1;exitY=0.5;exitDx=0;exitDy=0;entryX=0.5;entryY=0;entryDx=0;entryDy=0;entryPerimeter=0;" edge="1" parent="1" source="4Vjg-3eNtCdQvTgs3Ps0-17" target="4Vjg-3eNtCdQvTgs3Ps0-18">
          <mxGeometry relative="1" as="geometry" />
        </mxCell>
        <mxCell id="4Vjg-3eNtCdQvTgs3Ps0-22" value="&lt;h1&gt;Unit of Work&lt;/h1&gt;&lt;p&gt;- Commit&lt;/p&gt;" style="text;html=1;strokeColor=none;fillColor=none;spacing=5;spacingTop=-20;whiteSpace=wrap;overflow=hidden;rounded=0;" vertex="1" parent="1">
          <mxGeometry x="-170" y="370" width="190" height="120" as="geometry" />
        </mxCell>
        <mxCell id="V4UuypmB-NIpJJusFrBb-2" value="" style="edgeStyle=orthogonalEdgeStyle;rounded=0;orthogonalLoop=1;jettySize=auto;html=1;exitX=0.5;exitY=0.5;exitDx=0;exitDy=0;exitPerimeter=0;" edge="1" parent="1" source="4Vjg-3eNtCdQvTgs3Ps0-6" target="V4UuypmB-NIpJJusFrBb-1">
          <mxGeometry relative="1" as="geometry">
            <mxPoint x="-235" y="180" as="sourcePoint" />
            <mxPoint x="-50" y="180" as="targetPoint" />
          </mxGeometry>
        </mxCell>
        <mxCell id="V4UuypmB-NIpJJusFrBb-1" value="DTO" style="shape=note;whiteSpace=wrap;html=1;backgroundOutline=1;darkOpacity=0.05;size=13;" vertex="1" parent="1">
          <mxGeometry x="-160" y="145" width="50" height="70" as="geometry" />
        </mxCell>
        <mxCell id="V4UuypmB-NIpJJusFrBb-4" value="" style="edgeStyle=orthogonalEdgeStyle;rounded=0;orthogonalLoop=1;jettySize=auto;html=1;" edge="1" parent="1" source="4Vjg-3eNtCdQvTgs3Ps0-8" target="V4UuypmB-NIpJJusFrBb-3">
          <mxGeometry relative="1" as="geometry">
            <mxPoint x="520" y="180" as="sourcePoint" />
            <mxPoint x="710" y="240" as="targetPoint" />
          </mxGeometry>
        </mxCell>
        <mxCell id="V4UuypmB-NIpJJusFrBb-5" value="MongoDb API Client" style="edgeLabel;html=1;align=center;verticalAlign=middle;resizable=0;points=[];" vertex="1" connectable="0" parent="V4UuypmB-NIpJJusFrBb-4">
          <mxGeometry x="-0.3133" relative="1" as="geometry">
            <mxPoint x="-3" y="10" as="offset" />
          </mxGeometry>
        </mxCell>
        <mxCell id="V4UuypmB-NIpJJusFrBb-3" value="Entity" style="shape=note;whiteSpace=wrap;html=1;backgroundOutline=1;darkOpacity=0.05;size=13;" vertex="1" parent="1">
          <mxGeometry x="670" y="145" width="50" height="70" as="geometry" />
        </mxCell>
      </root>
    </mxGraphModel>
  </diagram>
  <diagram id="xIMV3zr0PD2RJyE5S0gE" name="Page-2">
    <mxGraphModel dx="2284" dy="738" grid="1" gridSize="10" guides="1" tooltips="1" connect="1" arrows="1" fold="1" page="1" pageScale="1" pageWidth="850" pageHeight="1100" math="0" shadow="0">
      <root>
        <mxCell id="0" />
        <mxCell id="1" parent="0" />
        <mxCell id="n8XXae360_C_i0co-jC9-1" value="Singleton" style="whiteSpace=wrap;html=1;aspect=fixed;fillColor=#d5e8d4;strokeColor=#82b366;" vertex="1" parent="1">
          <mxGeometry x="300" y="90" width="470" height="470" as="geometry" />
        </mxCell>
        <mxCell id="n8XXae360_C_i0co-jC9-2" value="Scoped" style="ellipse;whiteSpace=wrap;html=1;aspect=fixed;fillColor=#f8cecc;strokeColor=#b85450;" vertex="1" parent="1">
          <mxGeometry x="340" y="210" width="170" height="170" as="geometry" />
        </mxCell>
        <mxCell id="n8XXae360_C_i0co-jC9-20" value="" style="shape=process;whiteSpace=wrap;html=1;backgroundOutline=1;" vertex="1" parent="1">
          <mxGeometry x="365.5" y="295" width="120" height="60" as="geometry" />
        </mxCell>
        <mxCell id="n8XXae360_C_i0co-jC9-12" value="" style="whiteSpace=wrap;html=1;aspect=fixed;" vertex="1" parent="1">
          <mxGeometry x="810" y="40" width="190" height="190" as="geometry" />
        </mxCell>
        <mxCell id="n8XXae360_C_i0co-jC9-3" value="" style="ellipse;whiteSpace=wrap;html=1;aspect=fixed;" vertex="1" parent="1">
          <mxGeometry x="670" y="320" width="80" height="80" as="geometry" />
        </mxCell>
        <mxCell id="n8XXae360_C_i0co-jC9-4" value="" style="ellipse;whiteSpace=wrap;html=1;aspect=fixed;" vertex="1" parent="1">
          <mxGeometry x="425" y="420" width="80" height="80" as="geometry" />
        </mxCell>
        <mxCell id="n8XXae360_C_i0co-jC9-5" value="" style="ellipse;whiteSpace=wrap;html=1;aspect=fixed;" vertex="1" parent="1">
          <mxGeometry x="610" y="220" width="80" height="80" as="geometry" />
        </mxCell>
        <mxCell id="n8XXae360_C_i0co-jC9-6" value="" style="ellipse;whiteSpace=wrap;html=1;aspect=fixed;" vertex="1" parent="1">
          <mxGeometry x="610" y="430" width="80" height="80" as="geometry" />
        </mxCell>
        <mxCell id="n8XXae360_C_i0co-jC9-8" style="edgeStyle=orthogonalEdgeStyle;rounded=0;orthogonalLoop=1;jettySize=auto;html=1;exitX=0.75;exitY=0.1;exitDx=0;exitDy=0;exitPerimeter=0;" edge="1" parent="1" source="n8XXae360_C_i0co-jC9-7" target="n8XXae360_C_i0co-jC9-2">
          <mxGeometry relative="1" as="geometry" />
        </mxCell>
        <mxCell id="n8XXae360_C_i0co-jC9-7" value="Actor" style="shape=umlActor;verticalLabelPosition=bottom;verticalAlign=top;html=1;outlineConnect=0;" vertex="1" parent="1">
          <mxGeometry x="-120" y="285" width="30" height="60" as="geometry" />
        </mxCell>
        <mxCell id="n8XXae360_C_i0co-jC9-14" style="edgeStyle=orthogonalEdgeStyle;rounded=0;orthogonalLoop=1;jettySize=auto;html=1;exitX=0;exitY=0;exitDx=0;exitDy=52.5;exitPerimeter=0;entryX=1;entryY=0;entryDx=0;entryDy=0;" edge="1" parent="1" source="n8XXae360_C_i0co-jC9-10" target="n8XXae360_C_i0co-jC9-2">
          <mxGeometry relative="1" as="geometry">
            <Array as="points">
              <mxPoint x="520" y="133" />
              <mxPoint x="520" y="235" />
            </Array>
          </mxGeometry>
        </mxCell>
        <mxCell id="n8XXae360_C_i0co-jC9-10" value="" style="shape=cylinder3;whiteSpace=wrap;html=1;boundedLbl=1;backgroundOutline=1;size=15;" vertex="1" parent="1">
          <mxGeometry x="830" y="80" width="60" height="80" as="geometry" />
        </mxCell>
        <mxCell id="n8XXae360_C_i0co-jC9-11" style="edgeStyle=orthogonalEdgeStyle;rounded=0;orthogonalLoop=1;jettySize=auto;html=1;exitX=0.5;exitY=0;exitDx=0;exitDy=0;entryX=0;entryY=0.5;entryDx=0;entryDy=0;entryPerimeter=0;" edge="1" parent="1" source="n8XXae360_C_i0co-jC9-17" target="n8XXae360_C_i0co-jC9-10">
          <mxGeometry relative="1" as="geometry" />
        </mxCell>
        <mxCell id="n8XXae360_C_i0co-jC9-13" value="DDoS" style="text;html=1;strokeColor=none;fillColor=none;align=center;verticalAlign=middle;whiteSpace=wrap;rounded=0;" vertex="1" parent="1">
          <mxGeometry x="70" y="50" width="60" height="30" as="geometry" />
        </mxCell>
        <mxCell id="n8XXae360_C_i0co-jC9-15" style="edgeStyle=orthogonalEdgeStyle;rounded=0;orthogonalLoop=1;jettySize=auto;html=1;exitX=0;exitY=1;exitDx=0;exitDy=0;" edge="1" parent="1" source="n8XXae360_C_i0co-jC9-2" target="n8XXae360_C_i0co-jC9-7">
          <mxGeometry relative="1" as="geometry" />
        </mxCell>
        <mxCell id="n8XXae360_C_i0co-jC9-16" value="WeatherRepo" style="rounded=0;whiteSpace=wrap;html=1;fillColor=#fff2cc;strokeColor=#d6b656;" vertex="1" parent="1">
          <mxGeometry x="383" y="305" width="85" height="40" as="geometry" />
        </mxCell>
        <mxCell id="n8XXae360_C_i0co-jC9-18" value="" style="edgeStyle=orthogonalEdgeStyle;rounded=0;orthogonalLoop=1;jettySize=auto;html=1;exitX=0.5;exitY=0;exitDx=0;exitDy=0;entryX=0.5;entryY=1;entryDx=0;entryDy=0;" edge="1" parent="1" source="n8XXae360_C_i0co-jC9-2" target="n8XXae360_C_i0co-jC9-17">
          <mxGeometry relative="1" as="geometry">
            <mxPoint x="465" y="190" as="sourcePoint" />
            <mxPoint x="830" y="120" as="targetPoint" />
          </mxGeometry>
        </mxCell>
        <mxCell id="n8XXae360_C_i0co-jC9-17" value="Servicio" style="shape=process;whiteSpace=wrap;html=1;backgroundOutline=1;" vertex="1" parent="1">
          <mxGeometry x="365" y="120" width="120" height="60" as="geometry" />
        </mxCell>
        <mxCell id="n8XXae360_C_i0co-jC9-19" value="WeatherRepo" style="rounded=0;whiteSpace=wrap;html=1;fillColor=#fff2cc;strokeColor=#d6b656;" vertex="1" parent="1">
          <mxGeometry x="383" y="130" width="85" height="40" as="geometry" />
        </mxCell>
        <mxCell id="n8XXae360_C_i0co-jC9-21" value="Singleton" style="whiteSpace=wrap;html=1;aspect=fixed;fillColor=#d5e8d4;strokeColor=#82b366;" vertex="1" parent="1">
          <mxGeometry x="320" y="620" width="470" height="470" as="geometry" />
        </mxCell>
        <mxCell id="n8XXae360_C_i0co-jC9-22" value="Scoped" style="ellipse;whiteSpace=wrap;html=1;aspect=fixed;fillColor=#f8cecc;strokeColor=#b85450;" vertex="1" parent="1">
          <mxGeometry x="360" y="740" width="170" height="170" as="geometry" />
        </mxCell>
        <mxCell id="n8XXae360_C_i0co-jC9-23" value="" style="shape=process;whiteSpace=wrap;html=1;backgroundOutline=1;" vertex="1" parent="1">
          <mxGeometry x="383" y="750" width="120" height="60" as="geometry" />
        </mxCell>
        <mxCell id="n8XXae360_C_i0co-jC9-24" value="" style="ellipse;whiteSpace=wrap;html=1;aspect=fixed;" vertex="1" parent="1">
          <mxGeometry x="690" y="850" width="80" height="80" as="geometry" />
        </mxCell>
        <mxCell id="n8XXae360_C_i0co-jC9-25" value="" style="ellipse;whiteSpace=wrap;html=1;aspect=fixed;" vertex="1" parent="1">
          <mxGeometry x="445" y="950" width="80" height="80" as="geometry" />
        </mxCell>
        <mxCell id="n8XXae360_C_i0co-jC9-26" value="" style="ellipse;whiteSpace=wrap;html=1;aspect=fixed;" vertex="1" parent="1">
          <mxGeometry x="630" y="750" width="80" height="80" as="geometry" />
        </mxCell>
        <mxCell id="n8XXae360_C_i0co-jC9-27" value="" style="ellipse;whiteSpace=wrap;html=1;aspect=fixed;" vertex="1" parent="1">
          <mxGeometry x="630" y="960" width="80" height="80" as="geometry" />
        </mxCell>
        <mxCell id="n8XXae360_C_i0co-jC9-28" style="edgeStyle=orthogonalEdgeStyle;rounded=0;orthogonalLoop=1;jettySize=auto;html=1;exitX=0.75;exitY=0.1;exitDx=0;exitDy=0;exitPerimeter=0;" edge="1" parent="1" source="n8XXae360_C_i0co-jC9-29" target="n8XXae360_C_i0co-jC9-22">
          <mxGeometry relative="1" as="geometry" />
        </mxCell>
        <mxCell id="n8XXae360_C_i0co-jC9-29" value="Actor" style="shape=umlActor;verticalLabelPosition=bottom;verticalAlign=top;html=1;outlineConnect=0;" vertex="1" parent="1">
          <mxGeometry x="-100" y="815" width="30" height="60" as="geometry" />
        </mxCell>
        <mxCell id="n8XXae360_C_i0co-jC9-30" style="edgeStyle=orthogonalEdgeStyle;rounded=0;orthogonalLoop=1;jettySize=auto;html=1;exitX=0;exitY=0;exitDx=0;exitDy=52.5;exitPerimeter=0;entryX=1;entryY=0;entryDx=0;entryDy=0;" edge="1" parent="1" source="n8XXae360_C_i0co-jC9-31" target="n8XXae360_C_i0co-jC9-22">
          <mxGeometry relative="1" as="geometry">
            <Array as="points">
              <mxPoint x="540" y="663" />
              <mxPoint x="540" y="765" />
            </Array>
          </mxGeometry>
        </mxCell>
        <mxCell id="n8XXae360_C_i0co-jC9-31" value="" style="shape=cylinder3;whiteSpace=wrap;html=1;boundedLbl=1;backgroundOutline=1;size=15;" vertex="1" parent="1">
          <mxGeometry x="850" y="610" width="60" height="80" as="geometry" />
        </mxCell>
        <mxCell id="n8XXae360_C_i0co-jC9-32" style="edgeStyle=orthogonalEdgeStyle;rounded=0;orthogonalLoop=1;jettySize=auto;html=1;exitX=0.5;exitY=0;exitDx=0;exitDy=0;entryX=0;entryY=0.5;entryDx=0;entryDy=0;entryPerimeter=0;" edge="1" parent="1" source="n8XXae360_C_i0co-jC9-37" target="n8XXae360_C_i0co-jC9-31">
          <mxGeometry relative="1" as="geometry" />
        </mxCell>
        <mxCell id="n8XXae360_C_i0co-jC9-33" value="DDoS" style="text;html=1;strokeColor=none;fillColor=none;align=center;verticalAlign=middle;whiteSpace=wrap;rounded=0;" vertex="1" parent="1">
          <mxGeometry x="90" y="580" width="60" height="30" as="geometry" />
        </mxCell>
        <mxCell id="n8XXae360_C_i0co-jC9-34" style="edgeStyle=orthogonalEdgeStyle;rounded=0;orthogonalLoop=1;jettySize=auto;html=1;exitX=0;exitY=1;exitDx=0;exitDy=0;" edge="1" parent="1" source="n8XXae360_C_i0co-jC9-22" target="n8XXae360_C_i0co-jC9-29">
          <mxGeometry relative="1" as="geometry" />
        </mxCell>
        <mxCell id="n8XXae360_C_i0co-jC9-35" value="WeatherRepo" style="rounded=0;whiteSpace=wrap;html=1;fillColor=#fff2cc;strokeColor=#d6b656;" vertex="1" parent="1">
          <mxGeometry x="403" y="760" width="85" height="40" as="geometry" />
        </mxCell>
        <mxCell id="n8XXae360_C_i0co-jC9-36" value="" style="edgeStyle=orthogonalEdgeStyle;rounded=0;orthogonalLoop=1;jettySize=auto;html=1;exitX=0.5;exitY=0;exitDx=0;exitDy=0;entryX=0.5;entryY=1;entryDx=0;entryDy=0;" edge="1" parent="1" source="n8XXae360_C_i0co-jC9-22" target="n8XXae360_C_i0co-jC9-37">
          <mxGeometry relative="1" as="geometry">
            <mxPoint x="485" y="720" as="sourcePoint" />
            <mxPoint x="850" y="650" as="targetPoint" />
          </mxGeometry>
        </mxCell>
        <mxCell id="n8XXae360_C_i0co-jC9-37" value="Servicio" style="shape=process;whiteSpace=wrap;html=1;backgroundOutline=1;" vertex="1" parent="1">
          <mxGeometry x="385" y="650" width="120" height="60" as="geometry" />
        </mxCell>
        <mxCell id="n8XXae360_C_i0co-jC9-38" value="WeatherRepo" style="rounded=0;whiteSpace=wrap;html=1;fillColor=#e1d5e7;strokeColor=#9673a6;" vertex="1" parent="1">
          <mxGeometry x="403" y="660" width="85" height="40" as="geometry" />
        </mxCell>
      </root>
    </mxGraphModel>
  </diagram>
</mxfile>
